<svg width="26" height="26" viewBox="0 0 26 26" fill="none" xmlns="http://www.w3.org/2000/svg">
<path fill-rule="evenodd" clip-rule="evenodd" d="M0 2C0 0.895431 0.895431 0 2 0H24C25.1046 0 26 0.895431 26 2C26 3.10457 25.1046 4 24 4H2C0.895431 4 0 3.10457 0 2Z" fill="#0F2F4F"/>
<path fill-rule="evenodd" clip-rule="evenodd" d="M0 13C0 11.8954 0.895431 11 2 11L24 11C25.1046 11 26 11.8954 26 13C26 14.1046 25.1046 15 24 15L2 15C0.895431 15 0 14.1046 0 13Z" fill="#0F2F4F"/>
<path fill-rule="evenodd" clip-rule="evenodd" d="M10 24C10 22.8954 10.8954 22 12 22H24C25.1046 22 26 22.8954 26 24C26 25.1046 25.1046 26 24 26H12C10.8954 26 10 25.1046 10 24Z" fill="#0F2F4F"/>
</svg>
