<svg width="28" height="27" viewBox="0 0 28 27" fill="none" xmlns="http://www.w3.org/2000/svg">
<path fill-rule="evenodd" clip-rule="evenodd" d="M26.4142 22.7574C27.1953 23.5384 27.1953 24.8047 26.4142 25.5858C25.6332 26.3668 24.3668 26.3668 23.5858 25.5858L14 16L4.41421 25.5858C3.63316 26.3668 2.36683 26.3668 1.58578 25.5858C0.804734 24.8047 0.804734 23.5384 1.58578 22.7574L11.1716 13.1716L1.41422 3.41421C0.633169 2.63317 0.633169 1.36684 1.41422 0.585788C2.19527 -0.195261 3.4616 -0.19526 4.24264 0.585788L14 10.3431L23.7574 0.585788C24.5384 -0.19526 25.8047 -0.195261 26.5858 0.585788C27.3668 1.36684 27.3668 2.63317 26.5858 3.41421L16.8284 13.1716L26.4142 22.7574Z" fill="#0F2F4F"/>
</svg>
